<svg width="38" height="38" viewBox="0 0 38 38" fill="none" xmlns="http://www.w3.org/2000/svg">
<path d="M17.416 6.33325H6.33268C5.49283 6.33325 4.68738 6.66688 4.09351 7.26075C3.49965 7.85461 3.16602 8.66007 3.16602 9.49992V31.6666C3.16602 32.5064 3.49965 33.3119 4.09351 33.9058C4.68738 34.4996 5.49283 34.8333 6.33268 34.8333H28.4993C29.3392 34.8333 30.1447 34.4996 30.7385 33.9058C31.3324 33.3119 31.666 32.5064 31.666 31.6666V20.5833" stroke="black" stroke-width="2" stroke-linecap="round" stroke-linejoin="round"/>
<path d="M29.291 3.95837C29.9209 3.32848 30.7752 2.97461 31.666 2.97461C32.5568 2.97461 33.4111 3.32848 34.041 3.95837C34.6709 4.58826 35.0248 5.44257 35.0248 6.33337C35.0248 7.22416 34.6709 8.07848 34.041 8.70837L18.9993 23.75L12.666 25.3334L14.2493 19L29.291 3.95837Z" stroke="black" stroke-width="2" stroke-linecap="round" stroke-linejoin="round"/>
</svg>
