<svg width="184" height="33" viewBox="0 0 184 33" fill="none" xmlns="http://www.w3.org/2000/svg">
<path d="M22.113 4.622V9.965H14.859V32H8.19V9.965H0.936V4.622H22.113ZM24.134 21.08C24.134 18.844 24.55 16.881 25.382 15.191C26.24 13.501 27.397 12.201 28.853 11.291C30.309 10.381 31.934 9.926 33.728 9.926C35.262 9.926 36.601 10.238 37.745 10.862C38.915 11.486 39.812 12.305 40.436 13.319V10.238H47.105V32H40.436V28.919C39.786 29.933 38.876 30.752 37.706 31.376C36.562 32 35.223 32.312 33.689 32.312C31.921 32.312 30.309 31.857 28.853 30.947C27.397 30.011 26.24 28.698 25.382 27.008C24.55 25.292 24.134 23.316 24.134 21.08ZM40.436 21.119C40.436 19.455 39.968 18.142 39.032 17.18C38.122 16.218 37.004 15.737 35.678 15.737C34.352 15.737 33.221 16.218 32.285 17.18C31.375 18.116 30.92 19.416 30.92 21.08C30.92 22.744 31.375 24.07 32.285 25.058C33.221 26.02 34.352 26.501 35.678 26.501C37.004 26.501 38.122 26.02 39.032 25.058C39.968 24.096 40.436 22.783 40.436 21.119ZM60.7827 32.312C58.8847 32.312 57.1947 31.987 55.7127 31.337C54.2307 30.687 53.0607 29.803 52.2027 28.685C51.3447 27.541 50.8637 26.267 50.7597 24.863H57.3507C57.4287 25.617 57.7797 26.228 58.4037 26.696C59.0277 27.164 59.7947 27.398 60.7047 27.398C61.5367 27.398 62.1737 27.242 62.6157 26.93C63.0837 26.592 63.3177 26.163 63.3177 25.643C63.3177 25.019 62.9927 24.564 62.3427 24.278C61.6927 23.966 60.6397 23.628 59.1837 23.264C57.6237 22.9 56.3237 22.523 55.2837 22.133C54.2437 21.717 53.3467 21.08 52.5927 20.222C51.8387 19.338 51.4617 18.155 51.4617 16.673C51.4617 15.425 51.7997 14.294 52.4757 13.28C53.1777 12.24 54.1917 11.421 55.5177 10.823C56.8697 10.225 58.4687 9.926 60.3147 9.926C63.0447 9.926 65.1897 10.602 66.7497 11.954C68.3357 13.306 69.2457 15.1 69.4797 17.336H63.3177C63.2137 16.582 62.8757 15.984 62.3037 15.542C61.7577 15.1 61.0297 14.879 60.1197 14.879C59.3397 14.879 58.7417 15.035 58.3257 15.347C57.9097 15.633 57.7017 16.036 57.7017 16.556C57.7017 17.18 58.0267 17.648 58.6767 17.96C59.3527 18.272 60.3927 18.584 61.7967 18.896C63.4087 19.312 64.7217 19.728 65.7357 20.144C66.7497 20.534 67.6337 21.184 68.3877 22.094C69.1677 22.978 69.5707 24.174 69.5967 25.682C69.5967 26.956 69.2327 28.1 68.5047 29.114C67.8027 30.102 66.7757 30.882 65.4237 31.454C64.0977 32.026 62.5507 32.312 60.7827 32.312ZM86.9758 32L80.3458 22.874V32H73.6768V3.14H80.3458V19.091L86.9368 10.238H95.1658L86.1178 21.158L95.2438 32H86.9758ZM112.719 26.852H121.455V32H106.05V4.622H112.719V26.852ZM127.99 7.976C126.82 7.976 125.858 7.638 125.104 6.962C124.376 6.26 124.012 5.402 124.012 4.388C124.012 3.348 124.376 2.49 125.104 1.814C125.858 1.112 126.82 0.760998 127.99 0.760998C129.134 0.760998 130.07 1.112 130.798 1.814C131.552 2.49 131.929 3.348 131.929 4.388C131.929 5.402 131.552 6.26 130.798 6.962C130.07 7.638 129.134 7.976 127.99 7.976ZM131.305 10.238V32H124.636V10.238H131.305ZM149.398 10.004C151.946 10.004 153.974 10.836 155.482 12.5C157.016 14.138 157.783 16.4 157.783 19.286V32H151.153V20.183C151.153 18.727 150.776 17.596 150.022 16.79C149.268 15.984 148.254 15.581 146.98 15.581C145.706 15.581 144.692 15.984 143.938 16.79C143.184 17.596 142.807 18.727 142.807 20.183V32H136.138V10.238H142.807V13.124C143.483 12.162 144.393 11.408 145.537 10.862C146.681 10.29 147.968 10.004 149.398 10.004ZM175.716 32L169.086 22.874V32H162.417V3.14H169.086V19.091L175.677 10.238H183.906L174.858 21.158L183.984 32H175.716Z" fill="#1090CB"/>
</svg>
