<svg xmlns="http://www.w3.org/2000/svg" xmlns:xlink="http://www.w3.org/1999/xlink" version="1.1" x="0px" y="0px" viewBox="0 0 64 80" enable-background="new 0 0 64 64" xml:space="preserve"><g display="none"><g display="inline"><polygon fill="none" stroke="#000000" stroke-width="2" stroke-linecap="round" stroke-linejoin="round" stroke-miterlimit="10" points="    8,30.0102196 56,10.25 20,36.4454041 20.0800171,36.7716255   "/><polygon fill="none" stroke="#000000" stroke-width="2" stroke-linecap="round" stroke-linejoin="round" stroke-miterlimit="10" points="    56,10.25 46,51.2729874 26.9500122,40.6168671 27,40.3994255   "/><polygon fill="none" stroke="#000000" stroke-width="2" stroke-linecap="round" stroke-linejoin="round" stroke-miterlimit="10" points="    56,10.25 27,40.3994255 26.9500122,40.6168671 24,53.25 20.0800171,36.7716255 20,36.4454041   "/><line fill="none" stroke="#000000" stroke-width="2" stroke-linecap="round" stroke-linejoin="round" stroke-miterlimit="10" x1="24" y1="53.25" x2="32" y2="44.353447"/><line fill="none" stroke="#000000" stroke-width="2" stroke-linecap="round" stroke-linejoin="round" stroke-miterlimit="10" x1="9" y1="48.720932" x2="15.7209301" y2="42"/><line fill="none" stroke="#000000" stroke-width="2" stroke-linecap="round" stroke-linejoin="round" stroke-miterlimit="10" x1="10.4709301" y1="53.75" x2="17.1918602" y2="47.0290718"/></g></g><g><g><path d="M56.9805298,10.3674316c0.0001221-0.0006714,0.000061-0.0012817,0.0001221-0.0019531    c0.0057373-0.048645,0.0120239-0.0950317,0.0106201-0.1439209c-0.0008545-0.0297852,0.0016479-0.05896-0.0018311-0.0883789    c-0.0045776-0.0388794-0.0202637-0.0753784-0.02948-0.1138306c-0.0006104-0.0025024-0.0012817-0.0050049-0.0019531-0.0075073    c-0.010437-0.0425415-0.0163574-0.0842285-0.0324707-0.1253662c-0.0112915-0.0286865-0.0246582-0.0552368-0.0385132-0.0828247    c-0.0067139-0.0133667-0.0065918-0.0282593-0.0139771-0.0414429c-0.0154419-0.0275269-0.0408936-0.0446777-0.0584717-0.0701904    c-0.0093994-0.0137329-0.0170288-0.0284424-0.0270996-0.041748c-0.0137329-0.0181274-0.0184326-0.0401001-0.0335693-0.0574951    c-0.0021973-0.0025024-0.0053711-0.003479-0.0075684-0.0059814c-0.0194092-0.0219116-0.0456543-0.0371094-0.0670776-0.057312    c-0.036438-0.0342407-0.0744629-0.062561-0.1151123-0.0906982c-0.0291138-0.0203247-0.0510254-0.0478516-0.0827026-0.0652466    c-0.0039063-0.0021362-0.0083618-0.0022583-0.0123291-0.0043335c-0.0256348-0.0136719-0.0536499-0.0178223-0.0802002-0.0291138    c-0.043396-0.0185547-0.0861206-0.0328979-0.1317139-0.045105c-0.0397339-0.0106812-0.0778198-0.0251465-0.1181641-0.0307617    c-0.0327148-0.0046387-0.0645142-0.0019531-0.0975342-0.0033569c-0.039917-0.00177-0.078186-0.00177-0.1184082,0.0013428    c-0.0422363,0.0032349-0.0829468,0.0068359-0.1243896,0.0154419c-0.0388184,0.0079346-0.0748291,0.0209961-0.1127319,0.0336914    c-0.0220947,0.0072632-0.0450439,0.0049438-0.0668335,0.013855l-48,19.7602539    c-0.3544922,0.1459961-0.5942383,0.4819336-0.6171875,0.8647461c-0.0229492,0.3833008,0.1748047,0.7451172,0.5097656,0.9326172    l11.6943359,6.5453491l3.8212891,16.0532837c0.0092773,0.0390625,0.0322266,0.0706177,0.0457764,0.1075439    c0.0167236,0.0460815,0.0330811,0.0897827,0.0567627,0.1334229c0.0410767,0.0756836,0.0926514,0.1408691,0.1506958,0.2026367    c0.0198975,0.0213013,0.0288696,0.0487671,0.0509644,0.0686035c0.0076294,0.006897,0.0175171,0.0088501,0.0253296,0.0154419    c0.0663452,0.0562744,0.142334,0.0974121,0.2213745,0.1348267c0.02771,0.0130615,0.0518799,0.0339966,0.0803833,0.0443115    c0.1047363,0.038147,0.2166748,0.0592651,0.3329468,0.0603027c0.0026855,0,0.005249,0.0014648,0.0079346,0.0014648    c0.000061,0,0.0001831-0.000061,0.0002441-0.000061C23.9998779,54.249939,23.9998779,54.25,24,54.25    c0.0004883,0,0.0014648,0,0.0019531,0c0.1300659-0.0002441,0.2525024-0.0307617,0.3676758-0.0770264    c0.0334473-0.0133057,0.0617065-0.0349731,0.093811-0.052063c0.0839844-0.0447998,0.15979-0.0980835,0.2276611-0.1644897    c0.0159912-0.015564,0.0374146-0.0211792,0.0525513-0.0379639l8-8.8964844    c0.0037842-0.0042114,0.0045776-0.0098267,0.0083008-0.0140991l12.7597656,7.1376343    C45.6630859,52.2304688,45.8310547,52.2729492,46,52.2729492c0.1357422,0,0.2714844-0.027832,0.3994141-0.0830078    c0.2866211-0.125,0.4980469-0.3764648,0.5722656-0.6801758l10-41.0229492c0.0009766-0.0040894,0-0.0081787,0.0009155-0.0122681    C56.9807129,10.4394531,56.9762573,10.4032593,56.9805298,10.3674316z M26.0253906,40.1757813l-2.0341797,8.715332    l-2.8623047-12.0307007l13.1027222-9.5341187l13.1802979-9.5904541L26.2792969,39.7060547    C26.1538086,39.8369141,26.065918,39.9990234,26.0253906,40.1757813z M48.6635742,14.3515625L29.8192139,28.0636597    l-10.1082764,7.3552856l-9.4179688-5.2714844L48.6635742,14.3515625z M25.8587646,49.6875114l1.7630615-7.5493889    l3.343689,1.8703613L25.8587646,49.6875114z M45.3398438,49.7578125l-16.8744507-9.4394531l6.7147217-6.9807739    l18.9702759-19.7218628L45.3398438,49.7578125z"/><path d="M16.4277344,42.7070313c0.390625-0.390625,0.390625-1.0234375,0-1.4140625s-1.0234375-0.390625-1.4140625,0    l-6.7207031,6.7207031c-0.390625,0.390625-0.390625,1.0234375,0,1.4140625    C8.4882813,49.6230469,8.7441406,49.7207031,9,49.7207031s0.5117188-0.0976563,0.7070313-0.2929688L16.4277344,42.7070313z"/><path d="M16.4848633,46.3222656l-6.7211914,6.7207031c-0.390625,0.390625-0.390625,1.0234375,0,1.4140625    C9.9589844,54.6523438,10.2148438,54.75,10.4707031,54.75s0.5117188-0.0976563,0.7070313-0.2929688l6.7211914-6.7207031    c0.390625-0.390625,0.390625-1.0234375,0-1.4140625S16.8754883,45.9316406,16.4848633,46.3222656z"/></g></g><text x="0" y="79" fill="#000000" font-size="5px" font-weight="bold" font-family="'Helvetica Neue', Helvetica, Arial-Unicode, Arial, Sans-serif">Created by Berkah Icon</text><text x="0" y="84" fill="#000000" font-size="5px" font-weight="bold" font-family="'Helvetica Neue', Helvetica, Arial-Unicode, Arial, Sans-serif">from the Noun Project</text></svg>